<svg id="visual" viewBox="0 0 1980 300" width="1980" height="300" xmlns="http://www.w3.org/2000/svg" xmlns:xlink="http://www.w3.org/1999/xlink" version="1.1"><rect x="0" y="0" width="1980" height="300" fill="#18252a"></rect><path d="M0 10L82.5 41.7C165 73.3 330 136.7 495 160.8C660 185 825 170 990 139.5C1155 109 1320 63 1485 53.3C1650 43.7 1815 70.3 1897.5 83.7L1980 97L1980 301L1897.5 301C1815 301 1650 301 1485 301C1320 301 1155 301 990 301C825 301 660 301 495 301C330 301 165 301 82.5 301L0 301Z" fill="#113543" stroke-linecap="round" stroke-linejoin="miter"></path></svg>