<svg width="945" height="400" viewBox="0 0 945 400" fill="none" xmlns="http://www.w3.org/2000/svg">
<g filter="url(#filter0_d_2408_33888)">
<path d="M835.404 82.197H109.596V232.699H835.404V82.197Z" fill="white"/>
<path d="M826.999 121.365H118.003V224.267H826.999V121.365Z" fill="#0041CC"/>
<path d="M826.999 90.6028H118.003V121.364H826.999V90.6028Z" fill="#9EC702"/>
<path fill-rule="evenodd" clip-rule="evenodd" d="M197.743 206.127L209.506 161.078C209.767 159.777 210.053 158.476 210.339 157.148C210.625 155.821 210.964 154.546 211.302 153.245C211.408 152.95 211.477 152.645 211.51 152.334C211.51 151.995 211.51 151.631 211.693 151.319C212.135 149.731 212.525 148.144 212.864 146.53C213.202 144.917 213.566 143.303 213.931 141.664H229.025L225.251 157.929C227.603 153.509 230.703 149.529 234.412 146.166C238.008 142.853 242.744 141.054 247.633 141.143C248.46 141.148 249.286 141.209 250.105 141.325L252.447 141.794L248.414 157.409C247.558 157.148 246.689 156.93 245.811 156.758C244.865 156.601 243.907 156.523 242.948 156.524C240.409 156.376 237.87 156.832 235.54 157.855C233.211 158.877 231.157 160.436 229.546 162.405C226.469 166.308 224.083 170.709 222.493 175.418C222.399 175.901 222.277 176.379 222.128 176.849C221.963 177.316 221.833 177.794 221.738 178.281L221.478 179.608L214.555 206.153L197.743 206.127Z" fill="#9EC702"/>
<path fill-rule="evenodd" clip-rule="evenodd" d="M692.841 190.356C695.117 191.672 697.514 192.77 699.998 193.635C702.597 194.511 705.323 194.951 708.065 194.936C708.935 194.937 709.804 194.885 710.668 194.78C711.549 194.682 712.419 194.507 713.27 194.259C715.123 193.811 716.884 193.045 718.475 191.995C719.236 191.504 719.892 190.867 720.406 190.121C720.919 189.375 721.28 188.535 721.468 187.649C721.538 187.42 721.538 187.175 721.468 186.947V186.374C721.469 185.697 721.297 185.032 720.97 184.44C720.642 183.848 720.168 183.349 719.594 182.991C718.139 181.959 716.577 181.087 714.936 180.388C714.155 180.05 713.348 179.712 712.568 179.425C711.731 179.101 710.914 178.727 710.121 178.306C707.283 177.12 704.648 175.495 702.314 173.492C701.113 172.389 700.176 171.031 699.573 169.517C698.969 168.003 698.714 166.373 698.826 164.747C698.826 164.071 698.826 163.29 698.826 162.483C698.926 161.602 699.1 160.732 699.347 159.881C700.536 154.687 703.652 150.139 708.065 147.154C712.316 144.237 717.101 142.185 722.145 141.117C723.784 140.856 725.424 140.622 727.011 140.466C728.599 140.31 730.16 140.206 731.67 140.206C734.29 140.19 736.905 140.434 739.477 140.935C742.006 141.377 744.508 141.96 746.972 142.678L742.548 155.196C740.481 154.475 738.369 153.892 736.224 153.452C734.101 153.103 731.945 152.989 729.796 153.114C729.015 153.114 728.104 153.114 727.194 153.114C726.232 153.2 725.277 153.339 724.331 153.531C722.586 153.955 720.912 154.63 719.36 155.534C718.588 155.937 717.912 156.501 717.378 157.188C716.844 157.875 716.463 158.669 716.263 159.516C716.166 159.691 716.121 159.889 716.133 160.089V160.661C716.138 161.318 716.319 161.962 716.658 162.525C716.997 163.088 717.481 163.55 718.059 163.862C719.546 164.769 721.114 165.536 722.743 166.153C723.524 166.491 724.357 166.777 725.19 167.063C726.013 167.312 726.821 167.608 727.61 167.948C730.491 169.094 733.184 170.664 735.6 172.607C736.837 173.712 737.803 175.087 738.421 176.627C739.039 178.166 739.294 179.827 739.165 181.481C739.165 182.288 739.009 183.121 738.905 183.954C738.815 184.896 738.641 185.828 738.384 186.738C737.06 192.358 733.681 197.278 728.911 200.532C724.337 203.657 719.114 205.703 713.635 206.517C712.441 206.767 711.233 206.941 710.017 207.038C708.768 207.038 707.597 207.038 706.348 207.038C703.224 207.051 700.106 206.781 697.031 206.231C694.066 205.749 691.129 205.106 688.234 204.305L692.841 190.356Z" fill="white"/>
<path fill-rule="evenodd" clip-rule="evenodd" d="M382.312 112.36L375.025 140.987C374.505 142.887 374.036 144.813 373.594 146.738C373.196 148.585 372.909 150.453 372.735 152.334C371.841 148.786 369.744 145.659 366.801 143.485C363.493 141.346 359.597 140.3 355.663 140.493C351.296 140.39 346.963 141.273 342.984 143.075C339.006 144.877 335.485 147.552 332.683 150.902C326.93 157.383 322.753 165.105 320.477 173.466C320.489 173.517 320.489 173.571 320.477 173.622C320.477 173.622 320.477 173.622 320.477 173.83C320.477 174.039 320.295 174.689 320.217 175.054C320.139 175.418 320.034 175.86 319.956 176.303C319.592 178.046 319.332 179.738 319.072 181.508C318.892 183.063 318.796 184.627 318.785 186.192C318.627 191.488 320.208 196.689 323.288 201C326.359 205.008 331.564 207.038 338.903 207.038C343.446 207.037 347.924 205.961 351.972 203.898C356.02 201.836 359.523 198.845 362.195 195.171L359.592 206.127H375.207C375.676 204.045 376.118 201.963 376.587 199.881C377.055 197.799 377.549 195.691 378.096 193.609C378.278 192.594 378.486 191.527 378.747 190.486L379.527 187.389L398.942 112.36H382.312ZM367.53 168.912C367.53 169.484 367.4 170.083 367.296 170.707C367.302 171.32 367.241 171.93 367.114 172.529C366.994 173.145 366.838 173.754 366.645 174.351C366.489 174.923 366.281 175.6 366.046 176.251C365.812 176.901 365.656 177.526 365.474 178.124C363.873 182.207 361.466 185.924 358.395 189.055C356.916 190.67 355.107 191.95 353.092 192.807C351.076 193.665 348.9 194.08 346.71 194.026C345.186 194.16 343.655 193.877 342.28 193.208C340.904 192.539 339.737 191.508 338.903 190.226C337.361 187.64 336.577 184.674 336.638 181.664C336.638 181.013 336.638 180.389 336.638 179.738C336.638 179.087 336.768 178.463 336.821 177.864C336.873 177.266 337.029 176.615 337.159 175.964C337.289 175.314 337.445 174.689 337.601 174.091C337.788 173.562 337.945 173.023 338.07 172.477C338.191 171.905 338.392 171.353 338.668 170.838C340.029 166.673 342.225 162.83 345.122 159.543C346.546 157.857 348.331 156.513 350.345 155.612C352.359 154.711 354.55 154.275 356.756 154.338C358.355 154.158 359.973 154.413 361.439 155.077C362.905 155.742 364.165 156.79 365.084 158.111C366.697 160.775 367.51 163.847 367.426 166.96C367.426 167.558 367.426 168.157 367.426 168.808" fill="#9EC702"/>
<path fill-rule="evenodd" clip-rule="evenodd" d="M307.673 146.088C304.29 142.002 298.773 139.946 291.017 139.946C281.488 139.753 272.252 143.239 265.226 149.679C258.067 156.137 252.994 164.581 250.653 173.935C250.135 175.824 249.744 177.745 249.481 179.686C249.215 181.478 249.084 183.288 249.091 185.099C248.902 188.211 249.414 191.325 250.59 194.213C251.766 197.1 253.575 199.687 255.884 201.781C260.49 205.685 267.048 207.637 275.662 207.637C277.958 207.635 280.252 207.505 282.533 207.246C284.903 206.983 287.258 206.592 289.586 206.075C291.145 205.807 292.684 205.433 294.192 204.956C295.702 204.488 297.263 203.941 298.851 203.343L302.468 188.951C298.979 190.735 295.37 192.274 291.668 193.557C288.146 194.795 284.444 195.437 280.711 195.457C276.729 195.665 272.797 194.499 269.573 192.152C268.163 191.003 267.045 189.535 266.313 187.871C265.58 186.206 265.252 184.391 265.357 182.575C265.357 182.054 265.357 181.534 265.357 181.013C265.357 180.493 265.513 179.946 265.565 179.322H308.948C309.017 178.987 309.131 178.663 309.287 178.359C309.413 178.039 309.509 177.708 309.573 177.37C309.573 177.214 309.573 177.032 309.781 176.927C309.828 176.762 309.898 176.605 309.989 176.459C310.171 176.043 310.328 175.574 310.51 175.106C310.683 174.616 310.805 174.111 310.874 173.596C311.397 171.572 311.814 169.522 312.123 167.454C312.411 165.516 312.559 163.559 312.566 161.599C312.777 155.935 310.928 150.388 307.361 145.984L307.673 146.088ZM296.769 164.748C296.612 165.685 296.482 166.648 296.3 167.611H268.375C269.82 163.375 272.246 159.54 275.454 156.42C277.008 154.846 278.867 153.605 280.916 152.773C282.965 151.941 285.162 151.535 287.374 151.579C288.784 151.435 290.209 151.636 291.524 152.167C292.839 152.698 294.005 153.541 294.921 154.624C296.432 156.788 297.216 159.376 297.159 162.015C297.15 162.93 297.081 163.843 296.951 164.748" fill="#9EC702"/>
<path fill-rule="evenodd" clip-rule="evenodd" d="M680.374 146.738C675.872 142.236 669.47 139.946 661.116 139.946C651.424 139.867 642.009 143.171 634.492 149.289C626.778 155.425 621.352 163.977 619.086 173.57C618.643 175.392 618.279 177.187 618.018 178.775C617.788 180.431 617.666 182.1 617.654 183.772C617.493 186.972 618.004 190.171 619.156 193.161C620.309 196.151 622.075 198.866 624.343 201.13C628.819 205.554 635.23 207.767 643.575 207.767C653.25 207.891 662.672 204.674 670.25 198.658C678.014 192.606 683.514 184.117 685.865 174.559C686.286 172.844 686.608 171.106 686.828 169.354C687.048 167.741 687.17 166.115 687.193 164.487C687.354 161.23 686.841 157.974 685.686 154.925C684.53 151.875 682.757 149.097 680.478 146.764L680.374 146.738ZM669.444 170.187C669.26 171.526 669.008 172.855 668.689 174.168C668.481 174.949 668.22 175.756 667.96 176.563C667.7 177.37 667.31 178.228 666.997 178.957C665.158 183.234 662.507 187.114 659.19 190.382C657.637 192.04 655.758 193.358 653.671 194.254C651.584 195.15 649.334 195.604 647.062 195.587C645.321 195.77 643.563 195.491 641.964 194.778C640.365 194.065 638.982 192.944 637.954 191.527C636.223 188.711 635.321 185.464 635.351 182.158C635.351 181.455 635.351 180.779 635.351 180.076C635.4 179.333 635.496 178.595 635.637 177.864C635.767 177.161 635.872 176.485 636.002 175.782C636.112 175.081 636.259 174.386 636.444 173.7C636.652 173.023 636.808 172.321 637.043 171.644C637.256 170.884 637.534 170.144 637.875 169.432C639.695 165.067 642.347 161.098 645.683 157.747C647.277 156.078 649.197 154.756 651.323 153.86C653.45 152.965 655.738 152.516 658.045 152.542C659.778 152.367 661.527 152.659 663.11 153.387C664.693 154.114 666.053 155.251 667.049 156.68C668.83 159.542 669.734 162.861 669.652 166.231C669.658 167.597 669.571 168.962 669.392 170.317" fill="white"/>
<path fill-rule="evenodd" clip-rule="evenodd" d="M598.917 141.794L595.898 152.204C595.56 150.391 594.849 148.668 593.81 147.145C592.77 145.621 591.425 144.331 589.86 143.355C586.349 141.37 582.363 140.38 578.331 140.492C574.008 140.354 569.71 141.203 565.764 142.975C561.818 144.747 558.328 147.396 555.56 150.72C549.877 157.231 545.764 164.959 543.536 173.31C543.47 173.837 543.365 174.359 543.224 174.871C543.224 175.392 543.016 175.86 542.886 176.303C542.547 177.82 542.321 179.359 542.209 180.909C542.209 182.445 541.949 183.902 541.871 185.281C541.708 190.557 543.261 195.744 546.295 200.063C549.244 204.106 554.154 206.127 561.025 206.127H562.17C566.668 205.84 571.041 204.523 574.948 202.276C579.101 199.996 582.77 196.929 585.749 193.245C585.384 194.442 585.072 195.691 584.734 197.018C584.395 198.346 583.953 199.621 583.536 201.026C583.12 202.432 582.235 204.358 581.559 206.023C580.824 207.613 579.953 209.137 578.956 210.577C577.199 213.015 574.924 215.033 572.294 216.485C569.822 217.856 567.14 218.806 564.356 219.296C563.497 219.296 562.612 219.582 561.754 219.66C560.895 219.738 560.166 219.79 559.359 219.79C556.074 219.816 552.805 219.315 549.678 218.307C546.675 217.306 543.76 216.061 540.96 214.585L537.264 225.151H584.551C584.883 224.925 585.188 224.663 585.462 224.371C592.849 217.36 597.962 208.294 600.14 198.346L614.766 141.794H598.917ZM590.589 170.057C590.498 171.103 590.315 172.139 590.043 173.154C589.86 173.778 589.652 174.377 589.496 175.001C589.326 175.667 589.109 176.319 588.845 176.953C587.199 180.971 584.776 184.623 581.715 187.702C580.241 189.262 578.461 190.502 576.486 191.344C574.511 192.186 572.384 192.611 570.238 192.594C568.732 192.72 567.219 192.451 565.849 191.811C564.48 191.172 563.301 190.186 562.43 188.951C560.903 186.387 560.119 183.45 560.166 180.467C560.177 179.222 560.264 177.979 560.426 176.745C560.605 175.495 560.875 174.26 561.233 173.05C561.233 172.607 561.415 172.191 561.545 171.748C561.676 171.306 561.832 170.89 562.014 170.447C563.388 166.336 565.624 162.565 568.572 159.387C570.032 157.74 571.835 156.433 573.853 155.556C575.872 154.679 578.057 154.255 580.257 154.312C581.839 154.175 583.429 154.456 584.868 155.128C586.307 155.799 587.544 156.837 588.455 158.137C590.166 160.751 591.072 163.81 591.058 166.934C591.069 167.98 590.991 169.024 590.823 170.057" fill="white"/>
<path fill-rule="evenodd" clip-rule="evenodd" d="M533.49 152.933C533.347 151.868 533.039 150.832 532.579 149.862C531.081 146.698 528.427 144.229 525.162 142.965C521.773 141.557 518.159 140.763 514.492 140.623C513.975 140.54 513.453 140.497 512.93 140.493H511.343C508.733 140.48 506.125 140.636 503.535 140.961C500.856 141.24 498.202 141.727 495.598 142.419C494.322 142.783 492.995 143.147 491.746 143.564C490.415 143.934 489.11 144.395 487.842 144.943L484.641 159.387C486.716 157.96 488.921 156.731 491.226 155.717C493.488 154.718 495.83 153.908 498.226 153.297C499.596 152.947 500.987 152.686 502.39 152.516C503.729 152.353 505.076 152.267 506.424 152.256C509.443 152.05 512.45 152.806 515.012 154.416C515.981 155.204 516.747 156.214 517.245 157.36C517.744 158.505 517.959 159.754 517.875 161C517.886 161.872 517.816 162.744 517.667 163.603C517.536 164.568 517.345 165.524 517.094 166.466C516.591 166.492 516.088 166.492 515.585 166.466C515.142 166.466 514.622 166.466 514.101 166.466C513.842 166.491 513.58 166.491 513.321 166.466C513.06 166.466 512.8 166.466 512.54 166.466C511.759 166.466 510.978 166.466 510.224 166.466C509.469 166.466 508.74 166.466 507.986 166.466C506.164 166.466 504.29 166.466 502.39 166.674C500.49 166.882 498.565 167.012 496.639 167.298C490.901 168.137 485.379 170.072 480.373 172.998C477.734 174.555 475.447 176.643 473.655 179.129C471.863 181.615 470.606 184.445 469.963 187.442C469.729 188.509 469.521 189.498 469.391 190.46C469.257 191.4 469.187 192.348 469.182 193.297C469.076 195.303 469.485 197.302 470.368 199.106C471.252 200.91 472.582 202.458 474.231 203.603C478.12 206.042 482.658 207.24 487.244 207.038H489.586C490.373 206.976 491.156 206.863 491.928 206.7C495.338 206.23 498.631 205.126 501.635 203.447C504.844 201.672 507.701 199.326 510.068 196.524L507.803 206.179H522.69C523.991 199.829 525.422 193.531 526.984 187.233C528.545 180.935 530.133 174.637 531.772 168.287C532.059 167.324 532.293 166.361 532.501 165.346C532.709 164.331 532.943 163.317 533.23 162.302C533.516 161.287 533.516 160.22 533.594 159.231C533.688 158.253 533.732 157.272 533.724 156.29C533.741 155.182 533.654 154.076 533.464 152.985L533.49 152.933ZM514.518 177.214C514.502 177.361 514.502 177.509 514.518 177.656C513.143 182.32 510.712 186.603 507.413 190.174C505.794 192.021 503.79 193.491 501.542 194.48C499.294 195.469 496.856 195.954 494.401 195.9C492.387 195.939 490.409 195.367 488.727 194.26C487.955 193.772 487.325 193.09 486.9 192.281C486.475 191.473 486.271 190.566 486.307 189.654C486.307 189.289 486.307 188.951 486.307 188.587C486.307 188.222 486.307 187.884 486.515 187.546C486.883 185.968 487.587 184.488 488.58 183.208C489.572 181.928 490.83 180.878 492.266 180.129C495.142 178.633 498.262 177.663 501.479 177.266C503.055 177.008 504.646 176.852 506.242 176.797H510.614H513.659C513.987 176.747 514.32 176.747 514.648 176.797C514.664 176.91 514.664 177.024 514.648 177.136" fill="white"/>
<path fill-rule="evenodd" clip-rule="evenodd" d="M461.375 146.66C458.408 142.548 453.454 140.492 446.514 140.492C442.108 140.472 437.752 141.432 433.762 143.303C429.519 145.337 425.717 148.184 422.571 151.683L424.94 141.507H408.908C408.596 143.095 408.31 144.656 408.024 146.218C407.737 147.779 407.399 149.341 407.061 150.902C406.722 152.464 406.228 154.181 405.89 155.717C405.551 157.252 405.161 158.866 404.718 160.401L387.88 225.151H404.536L409.169 206.752C409.452 206.013 409.687 205.257 409.871 204.487C410.125 203.631 410.333 202.763 410.496 201.885C410.652 201.026 410.834 200.193 411.068 199.282C411.264 198.485 411.412 197.677 411.511 196.862C412.614 200.136 414.947 202.852 418.017 204.435C421.221 206.145 424.796 207.039 428.427 207.038C432.904 207.204 437.36 206.337 441.449 204.505C445.537 202.672 449.15 199.924 452.006 196.472C457.791 189.698 461.941 181.684 464.133 173.049C464.628 171.045 465.018 169.12 465.304 167.194C465.553 165.33 465.674 163.452 465.669 161.572C465.824 156.261 464.284 151.037 461.27 146.66H461.375ZM447.581 168.131C447.581 168.989 447.373 169.822 447.217 170.733C447.061 171.644 447.009 171.904 446.931 172.503C446.853 173.101 446.697 173.596 446.566 174.116C446.436 174.637 446.124 175.73 445.838 176.719C445.551 177.708 445.187 178.463 444.849 179.321C443.127 183.079 440.748 186.499 437.822 189.419C436.435 190.89 434.761 192.06 432.903 192.857C431.045 193.654 429.043 194.06 427.022 194.051C425.473 194.221 423.908 193.984 422.479 193.363C421.05 192.742 419.808 191.76 418.876 190.512C417.313 188.022 416.524 185.123 416.612 182.184C416.609 180.878 416.696 179.574 416.872 178.28C417.025 176.953 417.278 175.64 417.627 174.351C417.809 173.752 417.991 173.179 418.147 172.633C418.322 172.029 418.54 171.437 418.798 170.863C420.413 166.705 422.827 162.903 425.903 159.673C427.374 158.004 429.191 156.674 431.226 155.776C433.261 154.877 435.467 154.431 437.692 154.468C439.168 154.296 440.663 154.51 442.032 155.09C443.4 155.669 444.595 156.593 445.499 157.773C446.995 160.164 447.756 162.943 447.685 165.762C447.685 166.543 447.686 167.376 447.529 168.157" fill="white"/>
<path d="M228.334 276.879C230.078 276.838 231.808 277.204 233.385 277.95C234.962 278.696 236.343 279.799 237.417 281.174V277.452H242.96V303.971H237.417V300.016C236.325 301.421 234.917 302.55 233.308 303.31C231.698 304.069 229.932 304.439 228.152 304.388C221.256 304.388 215.712 298.766 215.712 290.569C215.712 282.371 221.36 276.879 228.334 276.879ZM229.506 281.642C228.384 281.649 227.276 281.887 226.251 282.343C225.227 282.799 224.308 283.463 223.552 284.292C222.797 285.121 222.221 286.097 221.862 287.159C221.502 288.222 221.367 289.347 221.464 290.464C221.368 291.6 221.505 292.744 221.869 293.825C222.233 294.905 222.814 295.9 223.578 296.746C224.342 297.593 225.271 298.274 226.309 298.747C227.346 299.219 228.47 299.474 229.61 299.495C231.811 299.257 233.847 298.214 235.326 296.566C236.805 294.919 237.623 292.783 237.623 290.569C237.623 288.354 236.805 286.218 235.326 284.571C233.847 282.923 231.811 281.88 229.61 281.642H229.506Z" fill="white"/>
<path d="M275.334 290.256H269.271V303.841H263.779V270.373H275.334C283.272 270.373 287.176 274.901 287.176 280.34C287.176 285.103 284.053 290.256 275.334 290.256ZM275.334 285.779C279.602 285.779 281.528 283.723 281.528 280.34C281.528 276.957 279.602 274.849 275.334 274.849H269.271V285.779H275.334Z" fill="white"/>
<path d="M298.394 303.841H292.902V277.452H298.394V281.304C299.182 279.946 300.326 278.829 301.701 278.073C303.077 277.316 304.632 276.949 306.201 277.01V282.657H305.082C301.022 282.657 298.524 284.349 298.524 289.97L298.394 303.841Z" fill="white"/>
<path d="M323.3 304.258C321.509 304.296 319.729 303.964 318.072 303.283C316.415 302.601 314.916 301.585 313.67 300.297C312.424 299.01 311.457 297.479 310.83 295.8C310.204 294.122 309.93 292.332 310.027 290.543C309.947 288.717 310.238 286.894 310.881 285.184C311.524 283.474 312.507 281.912 313.771 280.592C315.034 279.272 316.551 278.222 318.232 277.504C319.912 276.786 321.72 276.416 323.547 276.416C325.375 276.416 327.183 276.786 328.863 277.504C330.543 278.222 332.061 279.272 333.324 280.592C334.587 281.912 335.57 283.474 336.214 285.184C336.857 286.894 337.147 288.717 337.067 290.543C337.129 292.365 336.815 294.18 336.145 295.876C335.474 297.571 334.461 299.111 333.17 300.397C331.878 301.684 330.335 302.691 328.637 303.355C326.939 304.019 325.122 304.327 323.3 304.258V304.258ZM323.3 299.495C324.44 299.497 325.568 299.26 326.611 298.8C327.654 298.339 328.589 297.666 329.356 296.823C330.123 295.98 330.705 294.985 331.065 293.904C331.425 292.822 331.555 291.677 331.446 290.543C331.571 289.42 331.457 288.284 331.112 287.209C330.767 286.134 330.199 285.143 329.444 284.303C328.69 283.463 327.767 282.791 326.735 282.333C325.703 281.874 324.586 281.639 323.456 281.642C319.318 281.642 315.649 284.531 315.649 290.543C315.649 296.554 319.24 299.495 323.3 299.495Z" fill="white"/>
<path d="M352.708 304.258C346.358 304.258 341.882 300.51 341.622 295.695H347.321C347.532 296.889 348.184 297.959 349.149 298.692C350.114 299.425 351.32 299.768 352.526 299.651C355.701 299.651 357.393 298.298 357.393 296.476C357.393 291.271 341.986 294.264 341.986 284.531C341.986 280.289 345.942 276.879 352.188 276.879C358.434 276.879 362.155 280.106 362.442 285.39H357.132C357.072 284.806 356.894 284.242 356.611 283.728C356.327 283.215 355.943 282.764 355.482 282.403C355.021 282.041 354.491 281.776 353.925 281.623C353.359 281.47 352.769 281.432 352.188 281.512C349.247 281.512 347.711 282.709 347.711 284.479C347.711 289.684 362.676 286.847 362.962 296.424C362.858 300.874 358.954 304.258 352.708 304.258Z" fill="white"/>
<path d="M380.684 304.257C378.89 304.302 377.106 303.971 375.448 303.285C373.79 302.599 372.294 301.573 371.056 300.274C369.818 298.974 368.865 297.43 368.26 295.741C367.655 294.051 367.41 292.254 367.541 290.464C367.403 288.67 367.648 286.867 368.259 285.175C368.87 283.482 369.833 281.939 371.086 280.647C372.338 279.356 373.851 278.345 375.524 277.682C377.196 277.018 378.991 276.718 380.788 276.801C382.511 276.726 384.231 277.012 385.836 277.641C387.442 278.27 388.898 279.229 390.111 280.454C391.325 281.68 392.268 283.145 392.881 284.757C393.494 286.369 393.763 288.091 393.67 289.813C393.67 290.684 393.609 291.554 393.488 292.416H373.215C373.289 294.351 374.129 296.178 375.548 297.495C376.968 298.813 378.853 299.513 380.788 299.443C382.084 299.529 383.375 299.219 384.491 298.555C385.606 297.89 386.493 296.902 387.034 295.721H392.942C392.152 298.313 390.514 300.564 388.291 302.112C386.068 303.66 383.389 304.416 380.684 304.257V304.257ZM373.163 288.2H387.841C387.815 287.266 387.601 286.348 387.209 285.5C386.818 284.652 386.259 283.892 385.565 283.267C384.872 282.641 384.059 282.163 383.175 281.861C382.291 281.56 381.355 281.441 380.424 281.512C378.59 281.494 376.818 282.175 375.469 283.418C374.12 284.661 373.295 286.371 373.163 288.2V288.2Z" fill="white"/>
<path d="M410.144 276.88C411.904 276.826 413.653 277.186 415.249 277.932C416.845 278.678 418.243 279.789 419.331 281.174V277.452H424.796V304.258C424.891 305.976 424.616 307.695 423.991 309.299C423.366 310.902 422.405 312.353 421.172 313.554C419.939 314.755 418.463 315.678 416.844 316.261C415.224 316.843 413.499 317.072 411.783 316.932C404.705 316.932 399.474 313.419 398.771 307.537H404.21C404.796 309.023 405.848 310.279 407.21 311.114C408.571 311.95 410.167 312.32 411.757 312.17C412.78 312.224 413.802 312.056 414.753 311.678C415.704 311.299 416.561 310.718 417.266 309.976C417.972 309.234 418.507 308.348 418.837 307.379C419.166 306.409 419.281 305.38 419.174 304.362V299.938C418.092 301.338 416.698 302.467 415.103 303.234C413.509 304.002 411.757 304.388 409.988 304.362C403.013 304.362 397.47 298.741 397.47 290.543C397.47 282.345 403.169 276.88 410.144 276.88ZM411.289 281.642C410.171 281.653 409.067 281.894 408.046 282.35C407.025 282.805 406.109 283.466 405.355 284.292C404.601 285.117 404.024 286.088 403.662 287.146C403.299 288.203 403.158 289.324 403.247 290.439C403.151 291.568 403.286 292.704 403.643 293.779C404 294.854 404.572 295.846 405.324 296.693C406.077 297.54 406.993 298.225 408.019 298.707C409.044 299.189 410.157 299.457 411.289 299.495C413.49 299.257 415.526 298.214 417.005 296.567C418.484 294.919 419.302 292.783 419.302 290.569C419.302 288.355 418.484 286.219 417.005 284.571C415.526 282.923 413.49 281.88 411.289 281.642V281.642Z" fill="white"/>
<path d="M456.599 303.841H451.108V300.666C450.153 301.801 448.956 302.708 447.605 303.321C446.255 303.933 444.784 304.235 443.301 304.206C441.815 304.282 440.33 304.039 438.946 303.493C437.562 302.946 436.311 302.11 435.278 301.04C434.245 299.969 433.453 298.69 432.956 297.288C432.459 295.886 432.268 294.393 432.396 292.911V277.296H437.809V292.052C437.809 296.919 440.412 299.417 444.446 299.417C448.48 299.417 451.134 296.815 451.134 292.052V277.452H456.625L456.599 303.841Z" fill="white"/>
<path d="M469.793 303.841H464.302V277.451H469.793V281.303C470.592 279.925 471.756 278.795 473.157 278.037C474.557 277.28 476.14 276.924 477.731 277.009V282.656H476.325C472.291 282.656 469.793 284.348 469.793 289.969V303.841Z" fill="white"/>
<path d="M507.452 276.879C510.203 276.641 512.948 277.398 515.188 279.012C517.428 280.626 519.014 282.991 519.658 285.675H513.75C513.306 284.384 512.448 283.276 511.309 282.523C510.17 281.77 508.814 281.414 507.452 281.511C503.002 281.511 500.087 284.764 500.087 290.542C500.087 296.32 503.002 299.651 507.452 299.651C508.821 299.765 510.188 299.413 511.331 298.652C512.474 297.892 513.327 296.767 513.75 295.461H519.658C518.954 298.112 517.353 300.437 515.127 302.04C512.902 303.644 510.19 304.427 507.452 304.257C499.827 304.257 494.44 298.87 494.44 290.542C494.44 282.214 499.827 276.879 507.452 276.879Z" fill="white"/>
<path d="M537.147 304.258C535.353 304.3 533.571 303.971 531.91 303.291C530.25 302.611 528.749 301.595 527.5 300.307C526.251 299.02 525.282 297.487 524.653 295.807C524.025 294.126 523.751 292.334 523.848 290.543C523.848 286.954 525.274 283.512 527.812 280.974C530.35 278.436 533.792 277.01 537.381 277.01C540.97 277.01 544.413 278.436 546.95 280.974C549.488 283.512 550.914 286.954 550.914 290.543C550.976 292.365 550.662 294.181 549.992 295.876C549.321 297.572 548.308 299.111 547.017 300.398C545.725 301.685 544.182 302.692 542.484 303.356C540.786 304.02 538.969 304.327 537.147 304.258V304.258ZM537.147 299.496C538.285 299.493 539.41 299.254 540.449 298.792C541.489 298.33 542.421 297.656 543.185 296.814C543.95 295.971 544.53 294.978 544.888 293.898C545.247 292.818 545.375 291.675 545.267 290.543C545.391 289.421 545.278 288.285 544.933 287.209C544.588 286.134 544.019 285.144 543.265 284.304C542.511 283.463 541.587 282.792 540.555 282.333C539.524 281.875 538.406 281.639 537.277 281.642C533.139 281.642 529.47 284.531 529.47 290.543C529.47 296.555 533.009 299.496 537.147 299.496Z" fill="white"/>
<path d="M594.426 289.007C594.426 284.14 591.823 281.642 587.789 281.642C583.756 281.642 581.101 284.244 581.101 289.007V303.841H575.74V289.007C575.74 284.14 573.137 281.642 569.103 281.642C565.07 281.642 562.389 284.244 562.389 289.007V303.841H556.924V277.452H562.389V280.471C563.547 279.237 564.974 278.288 566.558 277.696C568.143 277.105 569.844 276.887 571.526 277.061C573.209 277.235 574.829 277.795 576.259 278.698C577.69 279.601 578.893 280.822 579.774 282.266C581.024 280.206 582.924 278.62 585.174 277.756C587.424 276.892 589.897 276.8 592.205 277.494C594.513 278.188 596.525 279.629 597.925 281.59C599.326 283.551 600.036 285.922 599.943 288.33V303.945H594.504L594.426 289.007Z" fill="white"/>
<path d="M622.064 276.88C629.039 276.88 634.53 282.267 634.53 290.439C634.53 298.611 629.039 304.258 622.064 304.258C620.306 304.264 618.568 303.885 616.972 303.147C615.376 302.41 613.961 301.332 612.825 299.99V316.49H607.334V277.452H612.825V281.33C613.921 279.93 615.325 278.801 616.927 278.029C618.528 277.258 620.286 276.864 622.064 276.88ZM620.867 281.642C618.666 281.88 616.63 282.923 615.151 284.571C613.672 286.219 612.854 288.355 612.854 290.569C612.854 292.783 613.672 294.919 615.151 296.567C616.63 298.214 618.666 299.257 620.867 299.495C622.004 299.464 623.122 299.201 624.154 298.722C625.185 298.244 626.108 297.559 626.866 296.711C627.623 295.863 628.2 294.87 628.56 293.791C628.921 292.713 629.057 291.572 628.961 290.439C629.05 289.32 628.908 288.195 628.542 287.134C628.176 286.073 627.595 285.099 626.835 284.273C626.075 283.447 625.153 282.787 624.126 282.334C623.099 281.881 621.989 281.646 620.867 281.642V281.642Z" fill="white"/>
<path d="M651.214 276.878C652.975 276.822 654.725 277.182 656.321 277.928C657.917 278.674 659.315 279.786 660.401 281.173V277.451H665.944V303.97H660.401V300.015C659.301 301.418 657.888 302.544 656.274 303.303C654.661 304.063 652.893 304.434 651.11 304.387C644.24 304.387 638.696 298.765 638.696 290.568C638.696 282.37 644.188 276.878 651.214 276.878ZM652.359 281.641C651.241 281.652 650.138 281.892 649.117 282.348C648.096 282.804 647.18 283.465 646.425 284.29C645.671 285.115 645.095 286.087 644.732 287.145C644.369 288.202 644.228 289.323 644.318 290.437C644.222 291.566 644.356 292.703 644.713 293.778C645.071 294.853 645.643 295.845 646.395 296.692C647.147 297.539 648.064 298.224 649.089 298.706C650.114 299.188 651.227 299.456 652.359 299.494C654.561 299.256 656.596 298.213 658.075 296.565C659.554 294.918 660.373 292.782 660.373 290.568C660.373 288.353 659.554 286.217 658.075 284.57C656.596 282.922 654.561 281.879 652.359 281.641Z" fill="white"/>
<path d="M692.41 289.007C692.41 284.14 689.807 281.641 685.773 281.641C681.74 281.641 679.085 284.244 679.085 289.007V303.841H673.594V277.451H679.085V280.47C680.058 279.362 681.26 278.479 682.608 277.881C683.956 277.283 685.418 276.986 686.892 277.009C688.378 276.936 689.863 277.183 691.246 277.732C692.628 278.282 693.877 279.121 694.908 280.194C695.939 281.267 696.728 282.548 697.222 283.951C697.716 285.355 697.903 286.848 697.771 288.33V303.945H692.332L692.41 289.007Z" fill="white"/>
<path d="M723.51 277.451H729.287L713.022 316.489H707.348L712.736 303.476L702.326 277.451H708.441L715.885 297.647L723.51 277.451Z" fill="white"/>
</g>
<defs>
<filter id="filter0_d_2408_33888" x="-29" y="-27" width="1003" height="457.169" filterUnits="userSpaceOnUse" color-interpolation-filters="sRGB">
<feFlood flood-opacity="0" result="BackgroundImageFix"/>
<feColorMatrix in="SourceAlpha" type="matrix" values="0 0 0 0 0 0 0 0 0 0 0 0 0 0 0 0 0 0 127 0" result="hardAlpha"/>
<feOffset dy="2"/>
<feGaussianBlur stdDeviation="14.5"/>
<feComposite in2="hardAlpha" operator="out"/>
<feColorMatrix type="matrix" values="0 0 0 0 0 0 0 0 0 0 0 0 0 0 0 0 0 0 0.2 0"/>
<feBlend mode="normal" in2="BackgroundImageFix" result="effect1_dropShadow_2408_33888"/>
<feBlend mode="normal" in="SourceGraphic" in2="effect1_dropShadow_2408_33888" result="shape"/>
</filter>
</defs>
</svg>
